{
	"asset":{
		"generator":"Khronos glTF Blender I/O v3.5.30",
		"version":"2.0"
	},
	"scene":0,
	"scenes":[
		{
			"name":"Scene",
			"nodes":[
				0
			]
		}
	],
	"nodes":[
		{
			"mesh":0,
			"name":"Plane"
		}
	],
	"meshes":[
		{
			"name":"Plane.001",
			"primitives":[
				{
					"attributes":{
						"COLOR_0":0,
						"POSITION":1,
						"TEXCOORD_0":2,
						"NORMAL":3
					},
					"indices":4
				}
			]
		}
	],
	"accessors":[
		{
			"bufferView":0,
			"componentType":5123,
			"count":1024,
			"normalized":true,
			"type":"VEC4"
		},
		{
			"bufferView":1,
			"componentType":5126,
			"count":1024,
			"max":[
				1,
				0.07775411009788513,
				1
			],
			"min":[
				-1,
				0.07775411009788513,
				-1
			],
			"type":"VEC3"
		},
		{
			"bufferView":2,
			"componentType":5126,
			"count":1024,
			"type":"VEC2"
		},
		{
			"bufferView":3,
			"componentType":5126,
			"count":1024,
			"type":"VEC3"
		},
		{
			"bufferView":4,
			"componentType":5123,
			"count":1536,
			"type":"SCALAR"
		}
	],
	"bufferViews":[
		{
			"buffer":0,
			"byteLength":8192,
			"byteOffset":0,
			"target":34962
		},
		{
			"buffer":0,
			"byteLength":12288,
			"byteOffset":8192,
			"target":34962
		},
		{
			"buffer":0,
			"byteLength":8192,
			"byteOffset":20480,
			"target":34962
		},
		{
			"buffer":0,
			"byteLength":12288,
			"byteOffset":28672,
			"target":34962
		},
		{
			"buffer":0,
			"byteLength":3072,
			"byteOffset":40960,
			"target":34963
		}
	],
	"buffers":[
		{
			"byteLength":44032,
			"uri":"data:application/octet-stream;base64,"
		}
	]
}
